<?xml version="1.0" encoding="UTF-8"?>
<!DOCTYPE svg PUBLIC "-//W3C//DTD SVG 1.1//EN" "http://www.w3.org/Graphics/SVG/1.1/DTD/svg11.dtd">
<!-- Creator: CorelDRAW -->
<svg xmlns="http://www.w3.org/2000/svg" xml:space="preserve" width="0.133335in" height="0.133331in" version="1.1" style="shape-rendering:geometricPrecision; text-rendering:geometricPrecision; image-rendering:optimizeQuality; fill-rule:evenodd; clip-rule:evenodd"
viewBox="0 0 66.67 66.67"
 xmlns:xlink="http://www.w3.org/1999/xlink"
 xmlns:xodm="http://www.corel.com/coreldraw/odm/2003">
 <defs>
  <style type="text/css">
   <![CDATA[
    .fil0 {fill:none}
    .fil1 {fill:currentColor}
   ]]>
  </style>
 </defs>
 <g id="Layer_x0020_1">
  <metadata id="CorelCorpID_0Corel-Layer"/>
  <rect class="fil0" x="-0" y="-0" width="66.67" height="66.67"/>
  <g id="_2724786143008">
   <path class="fil1" d="M12.26 48.83c-2.67,0 -2.63,-3.87 -0.23,-3.87 3.06,0 2.57,3.87 0.23,3.87zm50.25 -10.98l0 1.22c-0.08,0.7 -0.31,1.36 -0.63,1.84 -0.65,0.95 -5.7,3.94 -6.98,4.76l-8.52 5.49c-0.97,0.65 -1.86,1.18 -2.85,1.82 -1.64,1.08 -2.44,1.21 -4.38,1.21 -1.09,0 -15.09,-3.4 -16.61,-3.78 -0.86,-0.22 -1.86,-0.44 -2.76,-0.66 -0.59,-0.15 -2.25,-0.57 -2.73,-0.57 0,0.57 0.09,1.94 -1.14,1.94l-10.6 0c-0.57,0 -1.14,-0.57 -1.14,-1.14l0 -19.14c0,-0.87 0.92,-1.25 1.82,-1.25l9.11 0c2.23,0 1.94,1.04 1.94,2.62l7.97 0c1.31,0 2.24,0.16 3.11,0.65l4.19 3.1c1.35,1.01 1.15,1.05 2.6,1.04 2.47,-0.02 4.94,0 7.41,0 2.42,0 5.3,-0.42 6.27,1.03l8.65 -1.95c0.85,-0.18 2.03,-0.56 2.97,-0.56 1.43,0 2.12,1.08 2.28,2.34zm-22.79 14.97c-1.74,0 -21.31,-5.1 -22.67,-5.13l0 -14.01 8.89 0c1.44,0 3,1.48 4.35,2.49 0.67,0.5 1.27,0.95 1.95,1.47 0.79,0.6 1.35,0.84 2.7,0.83l10.26 -0c2.41,0 2.51,-0.07 2.51,1.82 0,1.64 -1.34,1.95 -2.45,2.1 -3.24,0.44 -7.25,0.71 -10.37,1.14 -2.8,0.39 -2.71,0.19 -5.63,-0.96 -0.52,-0.21 -1.02,-0.38 -1.58,-0.59 -0.56,-0.2 -2.3,-1.23 -2.3,0.24 0,0.54 1.03,0.81 1.52,0.98 6.29,2.24 3.7,2.24 10,1.54l8.64 -0.94c2.17,-0.17 3.46,-1.55 3.63,-3.55 0.11,-1.28 -0.13,-0.9 1.21,-1.19 1.37,-0.3 2.54,-0.58 3.91,-0.87l5.82 -1.27c0.86,0.03 1.04,0.63 1.04,1.41 0,2.07 -1.11,2.32 -3.03,3.58l-9.58 6.14c-2.44,1.44 -6.47,4.75 -8.81,4.75z"/>
   <path class="fil1" d="M32.65 30.26l0 -15.61c0,-0.55 0.39,-0.8 0.91,-0.8l20.62 0c0.53,0 0.91,0.25 0.91,0.8l0 15.61c0,0.53 -0.26,0.8 -0.8,0.8l-20.85 0c-0.53,0 -0.8,-0.26 -0.8,-0.8zm-1.48 -15.61l0 15.61c0,1.49 1.19,2.28 2.73,2.28l19.94 0c1.57,0 2.73,-0.83 2.73,-2.28l0 -15.61c0,-1.09 -0.97,-2.17 -2.05,-2.17l-21.31 0c-1.13,0 -2.05,1.05 -2.05,2.17z"/>
   <path class="fil1" d="M40.06 18.64l0 7.63c0,0.96 0.63,1.71 1.59,1.71 0.54,0 6.14,-3.37 7.11,-3.94 0.77,-0.45 1.2,-0.51 1.2,-1.76 0,-0.67 -0.41,-0.93 -0.86,-1.19 -0.5,-0.3 -0.87,-0.49 -1.37,-0.8l-5.35 -3.08c-1.36,-0.75 -2.33,0.31 -2.33,1.42z"/>
   <path class="fil1" d="M11.57 46.78c0,1.05 1.25,1.05 1.25,0 0,-0.75 -1.25,-0.75 -1.25,0z"/>
  </g>
 </g>
</svg>
