<?xml version="1.0" encoding="UTF-8"?>
<!DOCTYPE svg PUBLIC "-//W3C//DTD SVG 1.1//EN" "http://www.w3.org/Graphics/SVG/1.1/DTD/svg11.dtd">
<!-- Creator: CorelDRAW -->
<svg xmlns="http://www.w3.org/2000/svg" xml:space="preserve" width="0.133335in" height="0.133331in" version="1.1" style="shape-rendering:geometricPrecision; text-rendering:geometricPrecision; image-rendering:optimizeQuality; fill-rule:evenodd; clip-rule:evenodd"
viewBox="0 0 66.67 66.67"
 xmlns:xlink="http://www.w3.org/1999/xlink"
 xmlns:xodm="http://www.corel.com/coreldraw/odm/2003">
 <defs>
  <style type="text/css">
   <![CDATA[
    .fil0 {fill:none}
    .fil1 {fill:currentColor}
   ]]>
  </style>
 </defs>
 <g id="Layer_x0020_1">
  <metadata id="CorelCorpID_0Corel-Layer"/>
  <rect class="fil0" x="0" y="-0" width="66.67" height="66.67"/>
  <g id="_2724940185040">
   <path class="fil1" d="M7.03 34.96c0,1.47 0.82,2.08 1.96,3.21 0.43,0.43 0.75,0.75 1.18,1.18 5.07,5.11 13.31,9.94 20.8,9.94 4.45,0 9.07,-1.74 12.68,-4.17 1.03,-0.69 2.57,-1.57 3.13,-2.63l-0.27 -0.32c-0.82,-0.72 -1.11,0.16 -3.48,1.75 -2.81,1.87 -7.27,3.9 -10.88,3.9 -3.8,0 -5.54,-0.07 -9.23,-1.56 -2.1,-0.85 -3.84,-1.78 -5.61,-2.96 -0.94,-0.63 -1.63,-1.08 -2.5,-1.79l-3.46 -2.89c-2.89,-2.67 -3.69,-3.37 -2.22,-4.81l0.87 -0.91c5.25,-5.48 13.09,-10.65 20.96,-10.65 3.9,0 7.64,1.37 10.3,2.71 2.08,1.05 4.07,2.46 5.92,3.83 2.18,1.62 1.4,1.56 2.55,1.29 0.12,-0.52 0.19,-0.75 -0.18,-1.15 -1.07,-1.19 -5.55,-4 -7.11,-4.86 -8.88,-4.94 -17.61,-3.89 -25.99,1.7l-7.59 6.3c-0.69,0.89 -1.84,1.54 -1.84,2.89z"/>
   <path class="fil1" d="M23.58 27.57c0.75,-0.5 1.56,-1.44 2.76,-1.97 7.47,-3.26 14.82,1.84 14.82,9.5 -0.28,-0.14 -1.62,-0.3 -2.07,-0.3l-0.47 0.57c0.16,0.59 0.24,0.77 0.79,0.88 0.31,0.06 1.33,0.16 1.6,0.18 -0.04,0.49 -0.19,0.89 -0.3,1.33 -0.29,-0.14 -2.47,-0.99 -2.79,-0.95 -0.26,0.03 -1.57,0.8 0.55,1.56 0.52,0.19 1.02,0.42 1.65,0.57 -0.06,0.76 -0.69,1.55 -1.04,2.07 -1.58,-0.83 -2.09,-2.69 -3.1,-1.18 0.2,0.85 1.81,2 2.07,2.07 -0.39,1.45 -5.94,4.61 -11.13,2.41 -1.8,-0.76 -3.2,-1.91 -4.31,-3.38 -0.98,-1.31 -2,-3.48 -2,-5.68 1.9,0.44 2.19,0.12 1.92,-1.04 -0.53,-0.12 -1.29,-0.3 -1.92,-0.3 0.11,-0.45 0.29,-1.41 0.3,-1.92 1.09,0.09 1.86,0.8 2.95,0.89 0.49,-0.73 1.03,-0.95 -0.74,-1.63 -0.43,-0.17 -1.19,-0.49 -1.63,-0.59 0.32,-0.62 0.65,-1.53 1.18,-1.92 0.31,0.21 1.34,1.57 1.83,1.88 0.67,0.41 0.46,0.05 0.98,0.05 0.37,-1.56 -0.55,-1.05 -1.92,-3.1zm-4.28 6.35c0,3.13 0.3,5.17 2.21,7.83 0.24,0.33 0.35,0.39 0.63,0.7 1.15,1.29 2.22,2.21 3.96,2.99 4.46,1.99 9.57,1.02 12.81,-2.25 0.52,-0.52 0.93,-0.85 1.34,-1.47 6.48,-9.67 -2.06,-20.26 -11.66,-18.31 -5.06,1.03 -9.29,5.82 -9.29,10.51z"/>
   <path class="fil1" d="M47.66 37.62c0,-3.46 4.2,-7.03 8.43,-3.7 1.87,1.47 2.2,4.84 0.61,6.83 -1.74,2.17 -2.77,0.93 -2.83,2.93 -0.08,2.51 -1.01,1.9 -0.6,2.95 0.49,1.28 0.61,0.26 0.61,2.51 0,1.21 -0.74,0.43 -0.74,2.95 0,1.43 0.74,-0.13 0.74,2.95 0,0.42 -0.34,0.57 -0.59,0.74 -0.19,-0.14 -1.55,-1.79 -1.66,-2.04 -0.33,-0.76 -0.11,-9.7 -0.11,-10.97 -0.32,-0.21 -0.28,-0.24 -0.62,-0.41 -1.89,-0.96 -3.22,-2.28 -3.22,-4.76zm-1.33 -0.44c0,2.16 0.56,4.03 2.19,5.34 0.47,0.38 0.85,0.71 1.5,0.86 0,2.91 0.01,5.81 0,8.72 -0.01,2.28 0.08,1.99 1.14,3.3 0.37,0.45 0.63,0.77 0.97,1.24 0.46,0.62 0.45,0.71 1.14,1.08 0.63,-0.33 2.07,-1.96 2.07,-2.36 0,-4.42 -0.74,-1.03 -0.74,-4.29 0,-0.41 1.77,-2.08 0,-4.73 0.61,-1.15 0.74,-1.07 0.74,-2.81 5.01,-2.65 4.39,-8.32 1.73,-10.6 -4.67,-4 -10.75,-0.15 -10.75,4.24z"/>
   <path class="fil1" d="M31.12 31.56c0,-0.93 0.02,-1.32 0.68,-2.13 0.21,-0.25 0.06,-0.08 0.21,-0.23 1.67,-1.62 5.01,-0.86 5.01,2.35 0,3.69 -5.91,3.7 -5.91,0zm-1.48 -0.3c0,1.19 0.56,2.33 1.14,2.99 1.23,1.39 2.84,1.7 4.62,1.29 -0.17,1.99 -2.26,3.84 -3.99,3.84 -1.8,0 -2.44,-0 -3.88,-1.44 -2.49,-2.48 -1.17,-6.78 2.26,-7.57 -0.01,0.61 -0.15,0.56 -0.15,0.89zm-4.73 3.25c0,2.05 0.44,3.18 1.81,4.55 2.48,2.48 6.1,2.33 8.57,-0.22 0.51,-0.52 0.94,-1.27 1.23,-2.02 0.65,-1.65 -0.1,-1.59 0.75,-2.5 3.68,-3.96 -1.91,-9.95 -6.16,-6.16 -0.73,0.65 -0.04,0.58 -1.28,0.79 -2.64,0.44 -4.92,2.91 -4.92,5.57z"/>
   <path class="fil1" d="M4.37 50.62l0 10.49c0,0.54 0.12,0.82 0.3,1.18 1.52,0.35 9.91,0.15 12.12,0.15 0.94,0 0.94,-1.48 0,-1.48l-10.93 0 0 -10.93c0,-0.72 -1.48,-1.43 -1.48,0.59z"/>
   <path class="fil1" d="M30.23 18.85c0,1.02 0.81,0.64 3.37,0.91 1.07,0.12 2.56,0.44 3.55,0.73 2.49,0.74 5.32,1.93 7.43,3.2l6.29 4.5c0.51,0.45 2.4,2.28 2.4,0.56 0,-0.85 -5.64,-4.76 -6.59,-5.38l-2.52 -1.47c-4.15,-2.11 -7.76,-3.64 -13.35,-3.64 -0.35,0 -0.59,0.25 -0.59,0.59z"/>
   <path class="fil1" d="M49.29 4.82c0,0.49 -0.01,0.89 0.89,0.89l10.79 0c0,2.15 -0.2,10.02 0.15,11.52 0.07,0.02 1.18,0.49 1.18,-0.44 0,-2.24 0.21,-10.88 -0.15,-12.41 -1.52,-0.35 -9.78,-0.15 -11.97,-0.15 -0.45,0 -0.89,0.14 -0.89,0.59z"/>
   <path class="fil1" d="M61.11 49.44c-0.35,1.51 -0.15,9.38 -0.15,11.52l-10.79 0c-1.23,0 -1.23,1.48 0,1.48 2.19,0 10.45,0.2 11.97,-0.15 0.35,-1.53 0.15,-10.18 0.15,-12.41 0,-0.64 -0.73,-0.62 -1.18,-0.44z"/>
   <path class="fil1" d="M4.52 4.37c-0.35,1.53 -0.15,10.18 -0.15,12.41 0,0.93 1.07,0.47 1.18,0.44 0.35,-1.51 0.15,-9.38 0.15,-11.52l10.79 0c1.23,0 1.23,-1.48 0,-1.48 -1.66,0 -11.13,-0.18 -11.97,0.15z"/>
   <path class="fil1" d="M8.36 40.57c-0.07,0.86 0.03,1.14 1.62,2.36 3.86,2.96 4.92,4.36 10.34,6.8 1.06,0.47 1.89,0.8 3.08,1.2 1.42,0.48 5.65,1.43 7.41,1.02 0.52,-2.23 -1.08,-0.66 -6.53,-2.19 -2.18,-0.61 -3.93,-1.46 -5.73,-2.39 -2.08,-1.08 -6.44,-4.21 -8.31,-6.02 -0.62,-0.6 -0.76,-1.21 -1.88,-0.78z"/>
   <path class="fil1" d="M6.89 52.83l0 6.06c0,0.69 0.34,1.04 1.04,1.04 1.67,0 5.54,0.18 6.94,-0.15 0.04,-0.14 0.58,-1.33 -0.89,-1.33l-5.61 0 0 -5.91c0,-0.83 -1.48,-1.19 -1.48,0.3z"/>
   <path class="fil1" d="M51.8 7.33c0,0.61 0.07,0.89 1.18,0.89l5.47 0c0,1.63 -0.18,5.11 0.15,6.5 0.07,0.02 1.18,0.49 1.18,-0.44l0 -6.94c0,-0.45 -0.43,-0.59 -0.89,-0.59l-6.21 0c-0.45,0 -0.89,0.14 -0.89,0.59z"/>
   <path class="fil1" d="M6.89 7.33l0 6.94c0,0.93 1.07,0.47 1.18,0.44 0.32,-1.39 0.15,-4.87 0.15,-6.5l5.47 0c1.71,0 1.45,-1.48 0.3,-1.48l-6.21 0c-0.45,0 -0.89,0.14 -0.89,0.59z"/>
   <path class="fil1" d="M58.6 51.95c-0.32,1.39 -0.15,4.87 -0.15,6.5l-5.47 0c-1.71,0 -1.45,1.48 -0.3,1.48l6.21 0c0.45,0 0.89,-0.14 0.89,-0.59l0 -6.94c0,-0.76 -0.77,-0.6 -1.18,-0.44z"/>
   <path class="fil1" d="M36.29 15.75c-0.16,0.67 -0.23,1 0.52,1.25 1.49,0.5 2.17,0.42 4.75,1.45l4.21 2c0.55,0.33 2.19,1.53 2.19,0.03 0,-1.21 -9.55,-4.88 -11.08,-4.88 -0.04,0 -0.54,0.13 -0.59,0.15z"/>
   <path class="fil1" d="M21.07 17.97c1.52,0 3.58,-1.65 10.8,-1.61 0.9,0 1.17,-0.04 1.17,-0.75 0,-1.3 -6.36,-0.36 -7.16,-0.21 -0.86,0.16 -4.35,0.91 -4.99,1.37 -0.47,0.34 -0.47,1.2 0.18,1.2z"/>
   <path class="fil1" d="M7.03 25.35c0,1.6 1.55,0.25 2.04,-0.18 0.43,-0.37 0.86,-0.7 1.32,-1.04 2.07,-1.55 3.27,-2.35 5.52,-3.65 0.38,-0.22 1.19,-0.53 1.48,-0.74 0.45,-0.33 0.87,-2.19 -1.63,-0.73 -2.74,1.6 -3.9,2.28 -6.51,4.28 -0.38,0.3 -0.74,0.59 -1.15,0.92 -0.33,0.27 -1.07,0.69 -1.07,1.15z"/>
   <path class="fil1" d="M36.88 50.62c0.24,0.46 0.32,0.74 1.04,0.74l9.9 0c1.23,0 1.23,-1.48 0,-1.48l-9.9 0c-0.71,0 -0.79,0.28 -1.04,0.74z"/>
   <path class="fil1" d="M36.88 54.9c0.24,0.46 0.32,0.74 1.04,0.74l9.9 0c1.26,0 1.33,-1.48 -0.3,-1.48l-9.6 0c-0.71,0 -0.79,0.28 -1.04,0.74z"/>
   <path class="fil1" d="M52.24 35.4c0,-0.85 1.03,-0.85 1.03,0 0,0.63 -1.03,0.63 -1.03,0zm0.44 1.92c1.04,0 1.91,-0.8 2.01,-1.82 0.26,-2.51 -3.88,-2.85 -3.85,-0.12 0.01,0.65 0.19,0.99 0.53,1.32 0.25,0.25 0.88,0.62 1.31,0.62z"/>
   <path class="fil1" d="M50.47 22.99c0,0.82 3.42,3.1 3.55,3.1 0.55,0 0.74,-0.18 0.74,-0.74 0,-0.58 -3.33,-2.95 -3.69,-2.95 -0.35,0 -0.59,0.24 -0.59,0.59z"/>
   <path class="fil1" d="M44.86 46.19c0.24,1.02 0.37,0.74 3.25,0.74 0.71,0 1,-1.33 -0.3,-1.33 -2.24,0 -2.39,-0.25 -2.95,0.59z"/>
   <path class="fil1" d="M46.93 49.14c1.18,0 1.77,0.19 1.77,-0.74 0,-0.79 -0.98,-0.59 -1.92,-0.59 -0.85,0 -0.61,1.33 0.15,1.33z"/>
   <path class="fil1" d="M46.78 57.71c1.3,0 1.92,0.2 1.92,-0.74 0,-0.77 -0.93,-0.59 -1.77,-0.59 -0.76,0 -0.99,1.33 -0.15,1.33z"/>
   <path class="fil1" d="M43.38 57.71c1.3,0 1.92,0.2 1.92,-0.74 0,-0.77 -0.93,-0.59 -1.77,-0.59 -0.76,0 -0.99,1.33 -0.15,1.33z"/>
   <path class="fil1" d="M42.79 48.55c0.5,0.74 0.46,0.59 1.92,0.59 0.8,0 0.8,-1.33 0,-1.33 -1.69,0 -1.71,-0.17 -1.92,0.74z"/>
   <path class="fil1" d="M39.39 56.97c0.21,0.9 0.23,0.74 1.92,0.74 0.8,0 0.8,-1.33 0,-1.33 -1.46,0 -1.42,-0.15 -1.92,0.59z"/>
   <path class="fil1" d="M39.54 52.24c-0.24,0.92 0,0.48 0,1.03 3.27,0.76 2.47,-1.18 1.77,-1.18 -0.6,0 -1.24,-0.06 -1.77,0.15z"/>
   <path class="fil1" d="M46.33 53.28c3.26,0.76 2.47,-1.18 1.77,-1.18 -1.26,0 -2.1,-0.18 -1.77,1.18z"/>
   <path class="fil1" d="M42.94 53.28c3.26,0.76 2.47,-1.18 1.77,-1.18 -1.25,0 -2.1,-0.18 -1.77,1.18z"/>
   <path class="fil1" d="M36.88 56.97c0.13,0.26 0.17,0.48 0.3,0.74 0.8,0 1.33,0.13 1.33,-0.74 0,-0.7 -0.71,-0.59 -1.18,-0.59l-0.44 0.59z"/>
   <path class="fil1" d="M36.88 52.69c0.18,0.33 0.25,0.44 0.44,0.74 0.69,0 1.18,0.11 1.18,-0.74 0,-0.69 -0.71,-0.59 -1.18,-0.59l-0.44 0.59z"/>
   <path class="fil1" d="M40.43 48.55c0,0.45 1.48,1.15 1.48,-0.15 0,-0.79 -1.48,-0.89 -1.48,0.15z"/>
  </g>
 </g>
</svg>
