<?xml version="1.0" encoding="UTF-8"?>
<!DOCTYPE svg PUBLIC "-//W3C//DTD SVG 1.1//EN" "http://www.w3.org/Graphics/SVG/1.1/DTD/svg11.dtd">
<!-- Creator: CorelDRAW -->
<svg xmlns="http://www.w3.org/2000/svg" xml:space="preserve" width="0.133335in" height="0.133331in" version="1.1" style="shape-rendering:geometricPrecision; text-rendering:geometricPrecision; image-rendering:optimizeQuality; fill-rule:evenodd; clip-rule:evenodd"
viewBox="0 0 66.67 66.67"
 xmlns:xlink="http://www.w3.org/1999/xlink"
 xmlns:xodm="http://www.corel.com/coreldraw/odm/2003">
 <defs>
  <style type="text/css">
   <![CDATA[
    .fil0 {fill:none}
    .fil1 {fill:currentColor}
   ]]>
  </style>
 </defs>
 <g id="Layer_x0020_1">
  <metadata id="CorelCorpID_0Corel-Layer"/>
  <rect class="fil0" x="-0" y="-0" width="66.67" height="66.67"/>
  <g id="_2724938562672">
   <path class="fil1" d="M50.03 52.9c-0.03,-2.5 -0.37,-4.84 0.91,-6.12 1.28,-1.28 3.62,-0.94 6.09,-0.94l-7 7.06zm-43.78 -39.1c0,-1.99 1.39,-3.39 3.39,-3.39l8.07 0 0 1.3c0,1.59 1.37,2.86 3.38,2.86 1.43,0 2.86,-1.43 2.86,-2.86l0 -1.3 18.75 0 0 1.3c0,1.59 1.37,2.86 3.38,2.86 1.43,0 2.86,-1.43 2.86,-2.86l0 -1.3 8.07 0c1.99,0 3.39,1.39 3.39,3.39l0 4.95 -54.17 0 0 -4.95zm38.54 -2.47l0 -3.91c0,-1.51 2.08,-1.51 2.08,0l0 3.91c0,1.51 -2.08,1.51 -2.08,0zm-25 0l0 -3.91c0,-1.51 2.08,-1.51 2.08,0l0 3.91c0,1.51 -2.08,1.51 -2.08,0zm-2.08 -4.3l0 1.3 -8.72 0c-2.4,0 -4.82,2.42 -4.82,4.82l0 26.43c0,0.34 0.1,0.57 0.29,0.75 0.59,0.53 1.79,0.3 1.79,-0.75l0 -18.75 54.17 0 0 20.44c0,0.89 -0.28,1.56 -0.78,1.96 -0.56,0.45 -1.3,0.52 -2.35,0.52 -3.4,-0.02 -6.86,-0.75 -8.77,2.69 -1.66,2.99 0.68,8.35 -1.78,9.55 -1.11,0.54 -3.88,0.26 -5.47,0.26l-8.59 -0c-1.45,-0.01 -2.08,-0.13 -2.08,1.3 0,0.42 0.56,0.78 1.04,0.78l14.58 0c1.9,0 3.66,-2.29 4.72,-3.35l10.16 -10.16c0.61,-0.6 1.4,-1.62 1.4,-2.77l0 -28.91c0,-2.4 -2.42,-4.82 -4.82,-4.82l-8.72 0 0 -1.3c0,-1.59 -1.37,-2.87 -3.38,-2.87 -1.43,0 -2.86,1.43 -2.86,2.87l0 1.3 -18.75 0 0 -1.3c0,-1.59 -1.37,-2.87 -3.38,-2.87 -1.43,0 -2.86,1.43 -2.86,2.87z"/>
   <path class="fil1" d="M17.71 37.24c0,1.2 -0.05,1.69 1.3,1.69 0.91,0 0.78,-1.37 0.78,-1.69 1.94,0.45 3.27,0.57 5.17,1.99l1.37 1.11c2.05,2.06 2.5,3.99 3.09,6.54 -1.2,0 -1.69,-0.05 -1.69,1.3 0,0.91 1.37,0.78 1.69,0.78 -0.42,1.8 -0.26,1.85 -1.1,3.72 -0.41,0.91 -1.38,2.15 -2.02,2.8 -0.65,0.65 -1.88,1.61 -2.79,2.02 -1.89,0.85 -1.87,0.66 -3.72,1.1 0,-1.2 0.05,-1.69 -1.3,-1.69 -0.91,0 -0.78,1.38 -0.78,1.69 -2.63,-0.61 -4.24,-0.84 -6.52,-3.12 -2.15,-2.15 -2.5,-3.84 -3.12,-6.52 1.2,0 1.69,0.05 1.69,-1.3 0,-0.91 -1.38,-0.78 -1.69,-0.78 0.28,-1.21 0.38,-2.44 1.1,-3.72 0.3,-0.54 0.54,-0.98 0.89,-1.45 1.5,-2.01 3.15,-3.23 5.61,-4.03 0.69,-0.22 1.35,-0.28 2.04,-0.44zm0 -2.86l0 0.78c-1.87,0 -3.26,0.64 -4.61,1.25 -3.81,1.71 -7.1,6.41 -7.1,10.47 -0.72,0 -1.82,-0.14 -1.82,1.04 0,1.18 1.1,1.04 1.82,1.04 0,5.73 5.99,11.72 11.72,11.72 0,0.72 -0.14,1.82 1.04,1.82 1.18,0 1.04,-1.1 1.04,-1.82 5.73,0 11.72,-5.99 11.72,-11.72 0.72,0 1.82,0.14 1.82,-1.04 0,-1.18 -1.1,-1.04 -1.82,-1.04 0,-3.1 -2.09,-6.45 -3.68,-8.04 -1.61,-1.61 -4.9,-3.68 -8.04,-3.68 0,-0.72 0.14,-1.82 -1.04,-1.82 -0.63,0 -1.04,0.41 -1.04,1.04z"/>
   <path class="fil1" d="M15.1 47.92c0,-3.84 5.43,-5.02 6.95,-1.48 0.43,1 0.43,1.95 0,2.95 -1.21,2.83 -5.39,2.83 -6.6,0 -0.12,-0.27 -0.34,-1.17 -0.34,-1.48zm-2.08 -0.39l0 0.78c0,2.69 2.66,5.34 5.34,5.34l0.78 0c2.68,0 5.34,-2.67 5.34,-5.34l0 -0.78c0,-2.68 -2.66,-5.34 -5.34,-5.34l-0.78 0c-2.68,0 -5.34,2.65 -5.34,5.34z"/>
  </g>
 </g>
</svg>
